<?xml version="1.0" encoding="utf-8"?>
<!-- Generator: Adobe Illustrator 21.0.0, SVG Export Plug-In . SVG Version: 6.00 Build 0)  -->
<svg version="1.1" id="Layer_1" xmlns="http://www.w3.org/2000/svg" xmlns:xlink="http://www.w3.org/1999/xlink" x="0px" y="0px"
	 viewBox="0 0 1280 900" style="enable-background:new 0 0 1280 900;" xml:space="preserve">
<style type="text/css">
	.st0{fill:url(#SVGID_1_);}
	.st1{fill:none;stroke:#ABBAAB;stroke-linecap:round;stroke-miterlimit:10;}
</style>
<g>
	<linearGradient id="SVGID_1_" gradientUnits="userSpaceOnUse" x1="412.5691" y1="384.5" x2="704.4309" y2="384.5">
		<stop  offset="0.146" style="stop-color:#E3E8E3"/>
		<stop  offset="0.3886" style="stop-color:#ABBAAB"/>
		<stop  offset="0.5644" style="stop-color:#FFFFFF"/>
		<stop  offset="0.5767" style="stop-color:#FCFCFC"/>
		<stop  offset="0.8267" style="stop-color:#ABBAAB"/>
		<stop  offset="1" style="stop-color:#FDFDFD"/>
	</linearGradient>
	<polygon class="st0" points="412.6,384.5 434.5,362.6 421.3,334.6 449.4,321.5 446.7,290.7 477.6,288 485.5,258.1 515.4,266.1 
		533.2,240.8 558.5,258.6 583.8,240.8 601.6,266.1 631.5,258.1 639.4,288 670.3,290.7 667.6,321.5 695.7,334.6 682.5,362.6 
		704.4,384.5 682.5,406.4 695.7,434.4 667.6,447.5 670.3,478.3 639.4,481 631.5,510.9 601.6,502.9 583.8,528.2 558.5,510.4 
		533.2,528.2 515.4,502.9 485.5,510.9 477.6,481 446.7,478.3 449.4,447.5 421.3,434.4 434.5,406.4 	"/>
	<polygon class="st1" points="412.6,384.5 434.5,362.6 421.3,334.6 449.4,321.5 446.7,290.7 477.6,288 485.5,258.1 515.4,266.1 
		533.2,240.8 558.5,258.6 583.8,240.8 601.6,266.1 631.5,258.1 639.4,288 670.3,290.7 667.6,321.5 695.7,334.6 682.5,362.6 
		704.4,384.5 682.5,406.4 695.7,434.4 667.6,447.5 670.3,478.3 639.4,481 631.5,510.9 601.6,502.9 583.8,528.2 558.5,510.4 
		533.2,528.2 515.4,502.9 485.5,510.9 477.6,481 446.7,478.3 449.4,447.5 421.3,434.4 434.5,406.4 	"/>
</g>
</svg>
